<?xml version="1.0" encoding="iso-8859-1"?>
<!-- Generator: Adobe Illustrator 23.0.5, SVG Export Plug-In . SVG Version: 6.00 Build 0)  -->
<svg version="1.1" xmlns="http://www.w3.org/2000/svg" xmlns:xlink="http://www.w3.org/1999/xlink" x="0px" y="0px"
	 viewBox="0 0 492 492" style="enable-background:new 0 0 492 492;" xml:space="preserve">
<g id="Master_Layer_2">
</g>
<g id="Layer_1">
	<g>
		<g>
			<g>
				<g>
					<g>
						<g>
							<path style="fill-rule:evenodd;clip-rule:evenodd;fill:#212121;" d="M144.438,240.625c-1.008,0-2.04-0.264-2.976-0.816
								c-10.344-6.216-16.728-13.944-18.984-22.944c-0.648-2.616-0.744-5.856-0.936-12.264c-0.192-6.48-0.096-10.944-0.048-14.232
								c0.096-5.112,0.096-6.552-0.696-8.496c-0.936-2.088-8.328-11.328-16.464-20.112c-2.16-2.328-2.016-5.976,0.312-8.136
								c2.328-2.16,5.976-2.016,8.136,0.312c0.672,0.72,16.296,17.664,18.696,23.64c1.68,4.2,1.632,7.344,1.512,13.008
								c-0.048,3.144-0.144,7.488,0.024,13.68c0.144,4.872,0.24,8.376,0.6,9.792c1.488,5.928,6.096,11.256,13.728,15.864
								c2.736,1.632,3.6,5.184,1.968,7.896C148.302,239.617,146.382,240.625,144.438,240.625z"/>
						</g>
					</g>
					<g>
						<g>
							<path style="fill-rule:evenodd;clip-rule:evenodd;fill:#212121;" d="M223.926,139.825c-1.32,0-2.616-0.432-3.696-1.344
								c-9.36-7.872-18.456-9.552-24.456-10.68c-2.04-0.384-3.816-0.696-5.304-1.224c-6.288-2.184-10.896-4.32-25.488-19.896
								c-2.184-2.328-2.064-5.976,0.264-8.136c2.328-2.184,5.976-2.064,8.136,0.264c13.416,14.28,16.536,15.384,20.88,16.896
								c0.672,0.24,2.088,0.504,3.6,0.768c6.768,1.248,18.072,3.336,29.784,13.176c2.424,2.04,2.736,5.688,0.696,8.112
								C227.19,139.129,225.557,139.825,223.926,139.825z"/>
						</g>
					</g>
					<g>
						<g>
							<path style="fill-rule:evenodd;clip-rule:evenodd;fill:#212121;" d="M94.95,176.017c-0.096,0-0.192,0-0.264,0
								c-1.536-0.072-2.952-0.744-3.984-1.872l-19.872-21.84c-2.136-2.352-1.968-6,0.384-8.136c2.352-2.136,6-1.968,8.136,0.384
								l15.984,17.568l79.68-72.504L159.03,72.049c-2.136-2.352-1.968-6,0.384-8.136c2.352-2.136,6-1.968,8.136,0.384l19.872,21.84
								c2.136,2.352,1.968,6-0.384,8.136l-88.224,80.256C97.758,175.489,96.366,176.017,94.95,176.017z"/>
						</g>
					</g>
				</g>
				<g>
					<g>
						<g>
							<path style="fill-rule:evenodd;clip-rule:evenodd;fill:#212121;" d="M102.102,352.848c-0.936,0-1.872-0.216-2.76-0.696
								c-2.784-1.536-3.816-5.016-2.28-7.824l41.424-75.768c2.088-3.912,4.752-7.464,7.944-10.536l54.792-52.68
								c2.304-2.208,5.928-2.136,8.136,0.168c2.208,2.304,2.136,5.928-0.168,8.136l-54.792,52.68
								c-2.328,2.232-4.272,4.824-5.784,7.656c-0.024,0.024-0.024,0.048-0.048,0.072l-41.448,75.816
								C106.11,351.768,104.142,352.848,102.102,352.848z"/>
						</g>
					</g>
					<g>
						<g>
							<path style="fill-rule:evenodd;clip-rule:evenodd;fill:#212121;" d="M142.158,396.12c-2.232,0-4.368-1.32-5.304-3.504
								c-1.248-2.928,0.12-6.312,3.024-7.56c16.296-6.96,28.896-5.28,40.008-3.792c5.424,0.72,10.56,1.416,15.456,0.888
								c15.96-1.68,44.616-10.296,51.504-19.464c1.272-1.68,2.784-5.376,1.776-8.568c-0.792-2.52-3.216-4.464-7.2-5.736
								c-3.024-0.984-4.68-4.224-3.72-7.248c0.984-3.024,4.224-4.68,7.248-3.72c9.624,3.096,13.272,8.904,14.64,13.224
								c2.352,7.392-0.432,14.856-3.528,18.984c-4.656,6.216-14.136,11.808-28.2,16.656c-10.2,3.528-22.488,6.408-31.296,7.32
								c-6.264,0.672-12.312-0.144-18.168-0.936c-10.104-1.344-20.568-2.736-33.96,2.976
								C143.694,395.952,142.926,396.12,142.158,396.12z"/>
						</g>
					</g>
					<g>
						<g>
							<path style="fill-rule:evenodd;clip-rule:evenodd;fill:#212121;" d="M181.182,283.488c-1.464,0-2.952-0.552-4.08-1.68
								c-2.256-2.256-2.256-5.904,0-8.136l68.256-68.256c2.256-2.256,5.904-2.256,8.136,0c2.256,2.256,2.256,5.904,0,8.136
								l-68.256,68.256C184.134,282.936,182.646,283.488,181.182,283.488z"/>
						</g>
					</g>
					<g>
						<g>
							<path style="fill-rule:evenodd;clip-rule:evenodd;fill:#212121;" d="M208.637,305.856c-1.464,0-2.952-0.552-4.08-1.68
								c-2.256-2.256-2.256-5.904,0-8.136l69.048-69.048c2.256-2.256,5.904-2.256,8.136,0c2.256,2.256,2.256,5.904,0,8.136
								l-69.048,69.048C211.589,305.305,210.126,305.856,208.637,305.856z"/>
						</g>
					</g>
					<g>
						<g>
							<path style="fill-rule:evenodd;clip-rule:evenodd;fill:#212121;" d="M213.558,345.288c-1.464,0-2.952-0.552-4.08-1.68
								c-2.256-2.256-2.256-5.904,0-8.136l77.112-77.112c2.256-2.256,5.904-2.256,8.136,0c2.256,2.256,2.256,5.904,0,8.136
								l-77.112,77.112C216.485,344.736,215.022,345.288,213.558,345.288z"/>
						</g>
					</g>
					<g>
						<g>
							<path style="fill-rule:evenodd;clip-rule:evenodd;fill:#212121;" d="M134.238,431.064c-1.56,0-3.096-0.624-4.224-1.848
								c-2.16-2.328-2.016-5.976,0.312-8.136l17.448-16.152l-57.552-62.304l-17.424,16.128c-2.328,2.16-5.976,2.016-8.136-0.312
								c-2.16-2.328-2.016-5.976,0.312-8.136l21.672-20.064c1.128-1.032,2.616-1.584,4.128-1.536
								c1.536,0.048,2.976,0.72,4.008,1.848l65.352,70.752c2.16,2.328,2.016,5.976-0.312,8.136l-21.672,20.064
								C137.046,430.56,135.654,431.064,134.238,431.064z"/>
						</g>
					</g>
				</g>
				<g>
					<g>
						<g>
							<path style="fill-rule:evenodd;clip-rule:evenodd;fill:#212121;" d="M250.085,143.305c-1.008,0-2.04-0.264-2.976-0.816
								c-2.736-1.632-3.6-5.184-1.968-7.896c6.216-10.344,13.944-16.728,22.944-18.984c2.616-0.648,5.856-0.744,12.264-0.936
								c6.48-0.192,10.944-0.096,14.232-0.048c5.112,0.096,6.552,0.096,8.496-0.696c2.088-0.936,11.328-8.328,20.112-16.464
								c2.328-2.16,5.976-2.016,8.136,0.312c2.16,2.328,2.016,5.976-0.312,8.136c-0.72,0.672-17.664,16.296-23.64,18.696
								c-4.2,1.68-7.344,1.632-13.008,1.512c-3.144-0.048-7.488-0.144-13.68,0.024c-4.872,0.144-8.376,0.24-9.792,0.6
								c-5.928,1.488-11.256,6.096-15.864,13.728C253.949,142.321,252.053,143.305,250.085,143.305z"/>
						</g>
					</g>
					<g>
						<g>
							<path style="fill-rule:evenodd;clip-rule:evenodd;fill:#212121;" d="M350.885,222.793c-1.32,0-2.616-0.432-3.696-1.344
								c-2.424-2.04-2.736-5.688-0.696-8.112c7.872-9.36,9.552-18.456,10.68-24.456c0.384-2.04,0.696-3.816,1.224-5.304
								c2.184-6.288,4.32-10.896,19.896-25.488c2.328-2.184,5.976-2.064,8.136,0.264c2.184,2.328,2.064,5.976-0.264,8.136
								c-14.28,13.392-15.384,16.536-16.896,20.88c-0.24,0.672-0.504,2.088-0.768,3.6c-1.248,6.768-3.336,18.072-13.176,29.784
								C354.149,222.097,352.517,222.793,350.885,222.793z"/>
						</g>
					</g>
					<g>
						<g>
							<path style="fill-rule:evenodd;clip-rule:evenodd;fill:#212121;" d="M394.925,182.017c-1.56,0-3.12-0.624-4.272-1.872
								l-80.256-88.2c-1.032-1.128-1.56-2.616-1.488-4.152c0.072-1.536,0.744-2.952,1.872-3.984l21.84-19.872
								c2.352-2.136,6-1.968,8.136,0.384c2.136,2.352,1.968,6-0.384,8.136l-17.568,15.984l72.504,79.68l17.568-15.984
								c2.352-2.136,6-1.968,8.136,0.384c2.136,2.352,1.968,6-0.384,8.136l-21.84,19.872
								C397.709,181.513,396.317,182.017,394.925,182.017z"/>
						</g>
					</g>
				</g>
				<g>
					<g>
						<g>
							<path style="fill-rule:evenodd;clip-rule:evenodd;fill:#212121;" d="M389.645,324.096c-1.44,0-2.904-0.552-4.032-1.632
								c-0.696-0.672-17.184-16.824-19.872-22.656c-1.896-4.104-1.992-7.248-2.184-12.936c-0.096-3.144-0.24-7.464-0.72-13.656
								c-0.384-4.848-0.672-8.352-1.08-9.768c-1.776-5.832-6.672-10.944-14.52-15.144c-2.808-1.488-3.864-4.992-2.376-7.8
								c1.488-2.808,4.992-3.864,7.8-2.376c10.656,5.688,17.424,13.08,20.112,21.936c0.792,2.592,1.032,5.808,1.56,12.192
								c0.504,6.456,0.648,10.944,0.768,14.208c0.168,5.112,0.24,6.552,1.128,8.472c1.056,2.04,8.904,10.896,17.448,19.248
								c2.28,2.232,2.328,5.88,0.096,8.136C392.621,323.496,391.133,324.096,389.645,324.096z"/>
						</g>
					</g>
					<g>
						<g>
							<path style="fill-rule:evenodd;clip-rule:evenodd;fill:#212121;" d="M331.949,382.2c-1.44,0-2.88-0.528-3.984-1.608
								c-14.112-13.584-17.304-14.52-21.72-15.816c-0.672-0.192-2.112-0.384-3.648-0.6c-6.816-0.912-18.216-2.424-30.408-11.664
								c-2.544-1.92-3.024-5.544-1.104-8.064c1.92-2.544,5.544-3.024,8.064-1.104c9.768,7.392,18.912,8.616,24.96,9.408
								c2.064,0.264,3.84,0.504,5.352,0.96c6.384,1.872,11.088,3.768,26.472,18.576c2.28,2.208,2.352,5.856,0.144,8.136
								C334.973,381.6,333.461,382.2,331.949,382.2z"/>
						</g>
					</g>
					<g>
						<g>
							<path style="fill-rule:evenodd;clip-rule:evenodd;fill:#212121;" d="M339.605,416.4c-1.464,0-2.928-0.552-4.056-1.68
								l-20.952-20.808c-1.08-1.08-1.704-2.544-1.704-4.056c0-1.536,0.6-3,1.68-4.08l84.024-84.624
								c2.232-2.256,5.88-2.28,8.136-0.024l20.952,20.808c2.256,2.232,2.28,5.88,0.024,8.136c-2.232,2.256-5.88,2.28-8.136,0.024
								l-16.872-16.752l-75.888,76.44l16.872,16.752c2.256,2.232,2.28,5.88,0.024,8.136
								C342.557,415.824,341.069,416.4,339.605,416.4z"/>
						</g>
					</g>
				</g>
			</g>
		</g>
	</g>
</g>
</svg>
