<svg xmlns="http://www.w3.org/2000/svg" viewBox="0 0 48 48"><title>13-teacher</title><g id="_13-teacher" data-name="13-teacher"><path d="M15,25a8.009,8.009,0,0,0,8-8V11a8.075,8.075,0,0,0-4.431-7.148,16.3,16.3,0,0,1,.4-2.611A1,1,0,0,0,17.684.051c-.329.11-2.876,1.017-3.531,2.993A8.013,8.013,0,0,0,7,11v6A8.009,8.009,0,0,0,15,25ZM15,5a1,1,0,0,0,1-1,1.563,1.563,0,0,1,.648-1.114,11.075,11.075,0,0,0-.086,1.644,1,1,0,0,0,.631.894A6.058,6.058,0,0,1,21,11v.277L15.5,8.132a1,1,0,0,0-1.391,1.315l.824,1.648-2.557-1.024a1,1,0,0,0-1.267.482l-.493.987L9.026,10.482A6.006,6.006,0,0,1,15,5ZM9,12.868l1.445.964a1,1,0,0,0,1.45-.385l.588-1.177,4.145,1.659A1,1,0,0,0,17.9,12.553l-.523-1.046L21,13.58V17A6,6,0,0,1,9,17Z"/><path d="M15,21a3,3,0,0,0,3-3H16a1,1,0,0,1-2,0H12A3,3,0,0,0,15,21Z"/><path d="M31.293,29.293l-3.356,3.356-1.988-5.965a1.006,1.006,0,0,0-.5-.579l-4-2,0,.012A.9.9,0,0,0,20.2,24.4L19,26a5,5,0,0,1-8,0L9.8,24.4a.9.9,0,0,0-1.242-.283l0-.012-4,2a1.006,1.006,0,0,0-.5.579l-4,12A1,1,0,0,0,0,39v8a1,1,0,0,0,1,1H15a1,1,0,0,0,.916-.6A3.959,3.959,0,0,0,18,48H29a1,1,0,0,0,1-1V39a1,1,0,0,0-.051-.316L28.644,34.77l4.063-4.063ZM20,27.9v1.712L18.453,29.1A6.957,6.957,0,0,0,20,27.9Zm-10,0a6.957,6.957,0,0,0,1.547,1.2L10,29.612ZM18,46a2,2,0,1,1,2-2A2,2,0,0,1,18,46Zm0-6a3.974,3.974,0,0,0-2.693,1.062A.981.981,0,0,0,15,41H8V37H6v5a1,1,0,0,0,1,1h7v3H2V39.162L5.818,27.709,8,26.618V31a1,1,0,0,0,1.316.948L15,30.054l5.684,1.894A.983.983,0,0,0,21,32a1,1,0,0,0,1-1V26.618l2.182,1.091,2.174,6.521-6.337,6.337A3.947,3.947,0,0,0,18,40Zm10,6H21.444a3.877,3.877,0,0,0-.011-4.019l5.63-5.63L28,39.162Z"/><path d="M47,1H27a1,1,0,0,0-1,1V20a1,1,0,0,0,1,1h3v4a1,1,0,0,0,.617.924A.987.987,0,0,0,31,26a1,1,0,0,0,.707-.293L36.414,21H47a1,1,0,0,0,1-1V2A1,1,0,0,0,47,1ZM46,19H36a1,1,0,0,0-.707.293L32,22.586V20a1,1,0,0,0-1-1H28V3H46Z"/><circle cx="32" cy="11" r="2"/><circle cx="37" cy="11" r="2"/><circle cx="42" cy="11" r="2"/></g></svg>